<mxfile host="app.diagrams.net" modified="2021-10-02T11:07:22.450Z" agent="5.0 (Windows)" etag="LnLHAJ7Xcuas4DKc9L_9" version="15.4.1" type="github">
  <diagram id="Mwru6SLlAZj1pdQaNcO-" name="Page-1">
    <mxGraphModel dx="1027" dy="1690" grid="1" gridSize="10" guides="1" tooltips="1" connect="1" arrows="1" fold="1" page="1" pageScale="1" pageWidth="827" pageHeight="1169" math="0" shadow="0">
      <root>
        <mxCell id="0" />
        <mxCell id="1" parent="0" />
        <mxCell id="jxOVJOMrd3l1sjn1sXt3-3" value="PLATFORM_HTML" style="rounded=0;whiteSpace=wrap;html=1;" parent="1" vertex="1">
          <mxGeometry x="269" y="70" width="120" height="60" as="geometry" />
        </mxCell>
        <mxCell id="jxOVJOMrd3l1sjn1sXt3-42" style="edgeStyle=orthogonalEdgeStyle;rounded=0;orthogonalLoop=1;jettySize=auto;html=1;" parent="1" source="jxOVJOMrd3l1sjn1sXt3-5" edge="1">
          <mxGeometry relative="1" as="geometry">
            <mxPoint x="610" y="130" as="targetPoint" />
          </mxGeometry>
        </mxCell>
        <mxCell id="jxOVJOMrd3l1sjn1sXt3-5" value="MAIN" style="rounded=1;whiteSpace=wrap;html=1;" parent="1" vertex="1">
          <mxGeometry x="550" y="250" width="120" height="60" as="geometry" />
        </mxCell>
        <mxCell id="jxOVJOMrd3l1sjn1sXt3-23" style="edgeStyle=orthogonalEdgeStyle;rounded=0;orthogonalLoop=1;jettySize=auto;html=1;" parent="1" edge="1">
          <mxGeometry relative="1" as="geometry">
            <mxPoint x="549" y="100" as="targetPoint" />
            <mxPoint x="389" y="100" as="sourcePoint" />
          </mxGeometry>
        </mxCell>
        <mxCell id="jxOVJOMrd3l1sjn1sXt3-26" value="PLATFORM_HTML" style="rounded=0;whiteSpace=wrap;html=1;" parent="1" vertex="1">
          <mxGeometry x="269" y="-50" width="120" height="60" as="geometry" />
        </mxCell>
        <mxCell id="jxOVJOMrd3l1sjn1sXt3-32" style="edgeStyle=orthogonalEdgeStyle;rounded=0;orthogonalLoop=1;jettySize=auto;html=1;entryX=0;entryY=0.5;entryDx=0;entryDy=0;" parent="1" edge="1">
          <mxGeometry relative="1" as="geometry">
            <mxPoint x="389" y="-20" as="sourcePoint" />
            <mxPoint x="559" y="100" as="targetPoint" />
          </mxGeometry>
        </mxCell>
        <mxCell id="jxOVJOMrd3l1sjn1sXt3-29" value="PLATFORM_HTML" style="rounded=0;whiteSpace=wrap;html=1;" parent="1" vertex="1">
          <mxGeometry x="269" y="190" width="120" height="60" as="geometry" />
        </mxCell>
        <mxCell id="jxOVJOMrd3l1sjn1sXt3-31" style="edgeStyle=orthogonalEdgeStyle;rounded=0;orthogonalLoop=1;jettySize=auto;html=1;entryX=0;entryY=0.5;entryDx=0;entryDy=0;" parent="1" edge="1">
          <mxGeometry relative="1" as="geometry">
            <mxPoint x="389" y="220" as="sourcePoint" />
            <mxPoint x="559" y="100" as="targetPoint" />
          </mxGeometry>
        </mxCell>
        <mxCell id="jxOVJOMrd3l1sjn1sXt3-38" style="edgeStyle=orthogonalEdgeStyle;rounded=0;orthogonalLoop=1;jettySize=auto;html=1;exitX=1;exitY=0;exitDx=0;exitDy=75;exitPerimeter=0;entryX=0;entryY=0.75;entryDx=0;entryDy=0;" parent="1" source="jxOVJOMrd3l1sjn1sXt3-35" target="jxOVJOMrd3l1sjn1sXt3-36" edge="1">
          <mxGeometry relative="1" as="geometry" />
        </mxCell>
        <mxCell id="jxOVJOMrd3l1sjn1sXt3-35" value="&lt;div&gt;MONGO&lt;/div&gt;&lt;div&gt;EXPORT&lt;br&gt;&lt;/div&gt;" style="shape=cylinder3;whiteSpace=wrap;html=1;boundedLbl=1;backgroundOutline=1;size=15;" parent="1" vertex="1">
          <mxGeometry x="750" y="220" width="120" height="110" as="geometry" />
        </mxCell>
        <mxCell id="jxOVJOMrd3l1sjn1sXt3-37" style="edgeStyle=orthogonalEdgeStyle;rounded=0;orthogonalLoop=1;jettySize=auto;html=1;exitX=0;exitY=0.25;exitDx=0;exitDy=0;entryX=1;entryY=0;entryDx=0;entryDy=35;entryPerimeter=0;" parent="1" source="jxOVJOMrd3l1sjn1sXt3-36" target="jxOVJOMrd3l1sjn1sXt3-35" edge="1">
          <mxGeometry relative="1" as="geometry" />
        </mxCell>
        <mxCell id="jxOVJOMrd3l1sjn1sXt3-36" value="API" style="rounded=0;whiteSpace=wrap;html=1;" parent="1" vertex="1">
          <mxGeometry x="990" y="235" width="120" height="80" as="geometry" />
        </mxCell>
        <mxCell id="jxOVJOMrd3l1sjn1sXt3-46" style="edgeStyle=orthogonalEdgeStyle;rounded=0;orthogonalLoop=1;jettySize=auto;html=1;exitX=0.75;exitY=1;exitDx=0;exitDy=0;entryX=0.643;entryY=0.013;entryDx=0;entryDy=0;entryPerimeter=0;" parent="1" source="jxOVJOMrd3l1sjn1sXt3-44" target="jxOVJOMrd3l1sjn1sXt3-45" edge="1">
          <mxGeometry relative="1" as="geometry" />
        </mxCell>
        <mxCell id="jxOVJOMrd3l1sjn1sXt3-50" style="edgeStyle=orthogonalEdgeStyle;rounded=0;orthogonalLoop=1;jettySize=auto;html=1;exitX=0.75;exitY=0;exitDx=0;exitDy=0;entryX=0.708;entryY=0.63;entryDx=0;entryDy=0;entryPerimeter=0;" parent="1" source="jxOVJOMrd3l1sjn1sXt3-44" target="jxOVJOMrd3l1sjn1sXt3-48" edge="1">
          <mxGeometry relative="1" as="geometry" />
        </mxCell>
        <mxCell id="jxOVJOMrd3l1sjn1sXt3-44" value="&lt;div&gt;PLATFORM&lt;/div&gt;&lt;div&gt;SCRAPING_SCRIPT&lt;br&gt;&lt;/div&gt;" style="rounded=0;whiteSpace=wrap;html=1;" parent="1" vertex="1">
          <mxGeometry x="550" y="70" width="120" height="60" as="geometry" />
        </mxCell>
        <mxCell id="jxOVJOMrd3l1sjn1sXt3-47" style="edgeStyle=orthogonalEdgeStyle;rounded=0;orthogonalLoop=1;jettySize=auto;html=1;entryX=-0.017;entryY=0.627;entryDx=0;entryDy=0;entryPerimeter=0;" parent="1" source="jxOVJOMrd3l1sjn1sXt3-45" target="jxOVJOMrd3l1sjn1sXt3-35" edge="1">
          <mxGeometry relative="1" as="geometry" />
        </mxCell>
        <mxCell id="jxOVJOMrd3l1sjn1sXt3-45" value="&lt;div&gt;MAIN&lt;/div&gt;" style="shape=cube;whiteSpace=wrap;html=1;boundedLbl=1;backgroundOutline=1;darkOpacity=0.05;darkOpacity2=0.1;" parent="1" vertex="1">
          <mxGeometry x="540" y="240" width="150" height="90" as="geometry" />
        </mxCell>
        <mxCell id="jxOVJOMrd3l1sjn1sXt3-49" style="edgeStyle=orthogonalEdgeStyle;rounded=0;orthogonalLoop=1;jettySize=auto;html=1;exitX=0.25;exitY=1;exitDx=0;exitDy=0;exitPerimeter=0;entryX=0.308;entryY=-0.017;entryDx=0;entryDy=0;entryPerimeter=0;" parent="1" source="jxOVJOMrd3l1sjn1sXt3-48" target="jxOVJOMrd3l1sjn1sXt3-44" edge="1">
          <mxGeometry relative="1" as="geometry" />
        </mxCell>
        <mxCell id="jxOVJOMrd3l1sjn1sXt3-48" value="VPN" style="shape=tape;whiteSpace=wrap;html=1;" parent="1" vertex="1">
          <mxGeometry x="555" y="-160" width="120" height="100" as="geometry" />
        </mxCell>
      </root>
    </mxGraphModel>
  </diagram>
</mxfile>
